<svg width="60" height="80" viewBox="0 0 60 80" fill="none" xmlns="http://www.w3.org/2000/svg">
<path fill-rule="evenodd" clip-rule="evenodd" d="M14.5775 8.85131C12.7161 9.14038 10.3997 10.0086 8.22104 11.234L6.92341 11.9638L5.91739 11.8145C4.4157 11.5919 0.654954 11.466 0.246539 11.6249C-0.104359 11.7613 -0.102873 11.7649 0.395162 11.9624C1.47476 12.3905 3.86164 13.6319 4.73554 14.2197C6.07448 15.1202 7.51686 16.6651 8.15817 17.8853C9.07874 19.6373 9.33764 20.8859 9.33422 23.5568C9.3317 25.5349 9.22454 26.5954 8.57565 31.0622C8.1601 33.9232 7.75362 36.9663 7.67262 37.8246C7.13728 43.4914 7.41045 48.2926 8.57193 53.6304C9.97672 60.0859 13.3152 67.5842 17.7087 74.1511C18.1419 74.7986 18.4628 75.3824 18.4219 75.4485C18.381 75.5147 17.5932 75.8043 16.6711 76.0922C14.4896 76.7732 14.0515 77.2482 14.0515 78.9328V79.5434L21.0739 79.6392C24.9363 79.692 33.7143 79.7694 40.5807 79.8114C47.447 79.8534 54.4599 79.9255 56.1649 79.9716C58.1181 80.0245 59.2453 80.0028 59.2117 79.9129C59.1824 79.8345 57.8216 78.5756 56.1878 77.1152C48.0767 69.8658 46.376 67.9915 44.7017 64.457C44.1293 63.2487 38.8302 47.6402 38.9485 47.5112C38.9729 47.4846 40.1526 48.1592 41.5702 49.0102C45.5338 51.3898 49.4524 53.5988 55.6287 56.9353C56.7435 57.5376 56.7187 57.6357 56.1129 55.0126C55.12 50.7128 53.2821 46.2064 51.2675 43.1314C49.9448 41.1125 48.8817 39.8371 47.0266 38.0433C44.439 35.5414 42.4277 34.1664 36.7068 30.9878C32.3447 28.5642 30.3148 27.1998 28.7562 25.644C26.6021 23.4938 25.6328 21.6648 24.9716 18.5036C23.64 12.1382 21.1514 10.0983 16.5309 8.81833C15.9348 8.7791 15.0648 8.77566 14.5775 8.85131ZM8.96891 18.1367C8.92551 18.1801 9.04277 18.6365 9.22944 19.1509C10.0753 21.4811 10.0761 24.49 9.23331 31.1365C8.9481 33.3844 8.6293 36.0597 8.52467 37.0814C8.27588 39.5122 8.27588 46.354 8.52482 48.3768C9.69121 57.8571 12.7728 65.8379 18.7463 74.8488C19.8301 76.4838 20.4071 77.2197 20.6979 77.3383C21.7035 77.7482 22.8688 77.8372 28.1561 77.9082L33.7149 77.9828L33.3118 77.4848C25.2672 67.5446 19.728 57.2729 17.9581 49.013C17.5915 47.3024 17.5517 46.8253 17.5568 44.2153C17.562 41.5202 17.5895 41.2286 17.9508 40.0539C18.1645 39.3591 18.6711 38.0549 19.0767 37.1558C19.9921 35.1265 20.598 33.4134 21.0481 31.5824C21.3336 30.4205 21.3961 29.7625 21.4016 27.8668C21.4076 25.8372 21.367 25.4394 21.061 24.5228C19.7919 20.7225 16.5607 18.6461 11.2277 18.2041C9.21488 18.0372 9.07265 18.0331 8.96891 18.1367Z" fill="black"/>
<path fill-rule="evenodd" clip-rule="evenodd" d="M18.8129 4.13155C23.1716 6.33921 26.797 8.19006 26.8694 8.2446C27.0628 8.39053 27.2237 8.68712 27.2364 8.92127C27.2517 9.20413 26.928 10.3736 26.7696 10.6079C26.6405 10.7988 26.3791 10.957 26.1179 11.0022L25.9379 11.0334L8.6434 6.24254L8.50509 6.12316C8.30443 5.95004 8.16164 5.67984 8.14917 5.44975C8.14186 5.31445 8.17829 5.10796 8.26424 4.79769L8.39002 4.34365L8.66234 4.37C9.28684 4.43037 10.0369 4.18278 10.4303 3.78634C11.3249 2.88487 11.0863 1.42934 9.93101 0.740796C9.80398 0.665075 9.65414 0.580729 9.59798 0.553372C9.4696 0.490749 9.48524 0.431549 9.67741 0.253094C9.93725 0.0117993 10.2878 -0.0601032 10.6627 0.0509268C10.806 0.0933833 13.7679 1.57635 18.8129 4.13155ZM9.62079 0.965307C10.4822 1.44803 10.8257 2.4501 10.3883 3.2044C10.1875 3.55064 9.76828 3.85251 9.33891 3.96012C9.12854 4.0128 8.67225 4.03598 8.54411 4.00048C8.49672 3.98736 8.55394 3.75466 8.93118 2.42662C9.21606 1.42361 9.38859 0.869088 9.41527 0.870745C9.43804 0.872178 9.53053 0.914733 9.62079 0.965307ZM25.0346 11.937C24.851 12.5995 24.8319 12.6487 24.7409 12.693C24.6441 12.7402 24.5913 12.7261 16.6809 10.5348L8.71844 8.329L9.14934 6.7735L25.2309 11.2284L25.0346 11.937ZM13.3526 10.0026C13.3412 10.0439 12.9488 10.4957 12.7701 10.6734C12.0514 11.3879 11.0079 11.9185 9.89334 12.1362C8.45254 12.4176 6.54423 12.2205 4.66411 11.5962C3.94553 11.3577 3.07792 11.014 3.1062 10.9791C3.11625 10.9667 4.3352 10.4358 5.81498 9.79939L8.50542 8.64219L10.9313 9.3142C12.2655 9.6838 13.3551 9.99356 13.3526 10.0026Z" fill="#252ED9"/>
</svg>
